<svg id="Layer_1" data-name="Layer 1" xmlns="http://www.w3.org/2000/svg" xmlns:xlink="http://www.w3.org/1999/xlink" viewBox="0 0 536 536"><defs><linearGradient id="linear-gradient" x1="422.31" y1="371.44" x2="473.58" y2="280.96" gradientUnits="userSpaceOnUse"><stop offset="0" stop-color="#00a995"/><stop offset="0.5" stop-color="#006eb9"/><stop offset="1" stop-color="#00aa4f"/></linearGradient><linearGradient id="Analogous_2" x1="56.54" y1="377.34" x2="149.75" y2="331.21" xlink:href="#linear-gradient"/><linearGradient id="Analogous_2-2" x1="126.84" y1="404.12" x2="212.49" y2="383.87" xlink:href="#linear-gradient"/><linearGradient id="Analogous_2-3" x1="337.6" y1="408.61" x2="405.59" y2="352.73" xlink:href="#linear-gradient"/><linearGradient id="Analogous_2-4" x1="238.54" y1="391.15" x2="300.09" y2="408.72" xlink:href="#linear-gradient"/></defs><path d="M180,268v-.47a88,88,0,0,1,176,0V268H516V235.53a8,8,0,0,0-7-7.94l-63.33-7.91a182.19,182.19,0,0,0-18.2-43.94l39.2-50.4a8,8,0,0,0-.66-10.57L420.73,69.54a8,8,0,0,0-10.57-.65l-50.4,39.2a182.36,182.36,0,0,0-43.9-18.16l-7.92-63.37a8,8,0,0,0-7.94-7H236a8,8,0,0,0-7.94,7l-7.92,63.39a181.25,181.25,0,0,0-43.92,18.2l-50.4-39.2a8,8,0,0,0-10.57.65L70,114.8a8,8,0,0,0-.67,10.57l39.2,50.4A182.4,182.4,0,0,0,90.4,219.68L27,227.59a8,8,0,0,0-7,7.94V268Z" fill="#1a1718"/><path d="M180,268v-.47a88,88,0,0,1,176,0V268H516V235.53a8,8,0,0,0-7-7.94l-63.33-7.91a182.19,182.19,0,0,0-18.2-43.94l39.2-50.4a8,8,0,0,0-.66-10.57L420.73,69.54a8,8,0,0,0-10.57-.65l-50.4,39.2a182.36,182.36,0,0,0-43.9-18.16l-7.92-63.37a8,8,0,0,0-7.94-7H236a8,8,0,0,0-7.94,7l-7.92,63.39a181.25,181.25,0,0,0-43.92,18.2l-50.4-39.2a8,8,0,0,0-10.57.65L70,114.8a8,8,0,0,0-.67,10.57l39.2,50.4A182.4,182.4,0,0,0,90.4,219.68L27,227.59a8,8,0,0,0-7,7.94V268Z" fill="#201c1d"/><path d="M460,356a31.62,31.62,0,0,0-16.16,4.53L404,320.69V284H388v40a8,8,0,0,0,2.34,5.66l42.19,42.18A31.62,31.62,0,0,0,428,388a32,32,0,1,0,32-32Z" fill="url(#linear-gradient)"/><path d="M145.66,329.66A8,8,0,0,0,148,324V284H132v36.69L92.16,360.53A31.62,31.62,0,0,0,76,356a32,32,0,1,0,32,32,31.62,31.62,0,0,0-4.53-16.16Z" fill="#04bfbf"/><path d="M145.66,329.66A8,8,0,0,0,148,324V284H132v36.69L92.16,360.53A31.62,31.62,0,0,0,76,356a32,32,0,1,0,32,32,31.62,31.62,0,0,0-4.53-16.16Z" fill="url(#Analogous_2)"/><path d="M196,352.69l-45.66,45.65A8,8,0,0,0,148,404v33.13a32,32,0,1,0,16,0V407.31l45.66-45.65A8,8,0,0,0,212,356V284H196Z" fill="url(#Analogous_2-2)"/><path d="M388,437.13V404a8,8,0,0,0-2.34-5.66L340,352.69V284H324v72a8,8,0,0,0,2.34,5.66L372,407.31v29.82a32,32,0,1,0,16,0Z" fill="url(#Analogous_2-3)"/><path d="M276,453.13V284H260V453.13a32,32,0,1,0,16,0Z" fill="url(#Analogous_2-4)"/></svg>