<?xml version="1.0" standalone="no"?>
<!DOCTYPE svg PUBLIC "-//W3C//DTD SVG 20010904//EN"
 "http://www.w3.org/TR/2001/REC-SVG-20010904/DTD/svg10.dtd">
<svg version="1.0" xmlns="http://www.w3.org/2000/svg"
 width="2144.000000pt" height="2144.000000pt" viewBox="0 0 2144.000000 2144.000000"
 preserveAspectRatio="xMidYMid meet">
<metadata>
Created by potrace 1.14, written by Peter Selinger 2001-2017
</metadata>
<g transform="translate(0.000000,2144.000000) scale(0.100000,-0.100000)"
fill="#000000" stroke="none">
<path d="M9324 20640 c-63 -25 -126 -78 -160 -135 -30 -51 -41 -87 -49 -158
-5 -47 -10 -88 -20 -157 -2 -14 -9 -70 -15 -125 -7 -55 -14 -113 -16 -130 -2
-16 -13 -104 -24 -195 -12 -91 -23 -178 -25 -195 -3 -16 -12 -88 -20 -159 -9
-71 -17 -143 -20 -160 -2 -17 -7 -53 -10 -81 -4 -27 -8 -63 -10 -80 -2 -16
-11 -88 -20 -160 -19 -154 -22 -176 -29 -235 -4 -25 -8 -63 -11 -85 -3 -22
-12 -94 -20 -160 -9 -66 -18 -138 -20 -160 -3 -22 -7 -56 -10 -75 -2 -19 -7
-60 -11 -90 -9 -90 -33 -252 -36 -254 -2 -2 -32 -11 -68 -20 -490 -133 -1065
-368 -1533 -625 l-149 -81 -36 28 c-148 115 -924 718 -992 771 -127 98 -643
500 -660 514 -142 117 -373 284 -413 299 -92 35 -211 21 -290 -34 -18 -12
-452 -441 -965 -954 -1046 -1046 -985 -977 -985 -1123 0 -54 6 -89 21 -122 11
-25 186 -260 389 -520 202 -261 380 -490 395 -509 40 -52 265 -340 292 -375
206 -260 526 -678 526 -688 0 -6 -23 -52 -51 -102 -191 -340 -385 -778 -519
-1172 -59 -171 -77 -231 -122 -393 -12 -41 -25 -78 -31 -81 -5 -4 -34 -9 -65
-13 -32 -3 -75 -8 -97 -11 -110 -15 -274 -35 -310 -39 -37 -5 -1126 -140
-1205 -150 -41 -5 -264 -34 -330 -42 -561 -70 -569 -71 -624 -98 -92 -45 -158
-135 -173 -238 -5 -29 -8 -343 -8 -698 l0 -645 3203 -3 c1761 -1 3202 1 3203
5 0 5 2 51 4 103 3 103 14 268 19 297 2 10 6 45 10 78 12 109 66 364 107 507
101 351 273 716 477 1013 531 771 1340 1299 2252 1470 14 3 36 7 50 9 24 5 60
10 138 21 20 3 51 7 67 10 128 18 470 24 645 12 1028 -74 1966 -591 2579
-1422 53 -72 101 -139 108 -150 161 -263 240 -413 318 -604 155 -380 247 -807
259 -1211 3 -69 5 -128 5 -132 1 -5 1441 -8 3201 -8 l3201 0 -3 698 -3 697
-29 53 c-57 102 -139 156 -263 172 -43 6 -91 13 -108 15 -16 3 -70 9 -120 15
-92 11 -143 17 -205 25 -19 3 -91 12 -160 20 -69 9 -143 18 -165 21 -22 3 -56
7 -75 9 -19 2 -55 7 -80 10 -431 54 -690 86 -710 89 -14 3 -218 28 -455 57
-236 29 -431 53 -432 54 -1 0 -27 84 -57 186 -148 500 -365 1017 -619 1474
-55 98 -55 100 -37 120 10 11 322 412 694 890 372 479 689 885 704 904 193
243 214 280 215 392 3 147 59 83 -1000 1141 -1051 1049 -984 991 -1128 991
-94 0 -148 -25 -285 -131 -58 -45 -127 -99 -154 -120 -27 -20 -60 -46 -75 -58
-14 -12 -264 -207 -556 -433 -291 -227 -543 -423 -560 -436 -16 -13 -97 -76
-180 -139 -82 -64 -157 -122 -165 -129 -8 -7 -65 -51 -127 -99 l-111 -87 -118
65 c-452 251 -1000 478 -1484 616 -80 23 -148 45 -151 51 -4 5 -9 41 -13 81
-3 39 -8 82 -10 96 -3 14 -10 68 -16 120 -6 52 -13 106 -15 120 -2 14 -13 102
-25 195 -11 94 -23 186 -25 205 -4 31 -28 222 -41 325 -2 22 -9 72 -14 110 -5
39 -11 90 -14 115 -8 72 -17 143 -21 170 -2 14 -11 84 -20 155 -20 169 -25
205 -30 235 -3 14 -7 52 -10 85 -3 33 -8 71 -10 85 -2 14 -16 120 -30 235 -14
116 -30 225 -35 243 -21 81 -88 159 -173 204 l-42 23 -1360 2 c-1329 2 -1361
2 -1411 -17z"/>
<path d="M5280 9348 l0 -733 -796 -796 -796 -796 -61 33 c-92 48 -200 89 -307
114 -78 19 -125 23 -265 24 -180 1 -223 -3 -326 -29 -225 -57 -425 -171 -594
-340 -187 -185 -299 -395 -355 -662 -26 -124 -22 -411 8 -529 100 -393 353
-710 692 -867 218 -101 340 -127 590 -123 192 3 290 22 452 87 374 150 663
483 763 878 26 103 30 146 29 326 -1 140 -5 187 -24 265 -25 107 -66 215 -114
306 l-33 62 859 857 c653 652 865 870 886 909 l27 51 3 848 2 847 -320 0 -320
0 0 -732z"/>
<path d="M7840 8708 l0 -1373 -939 -940 c-874 -875 -940 -944 -959 -995 -20
-53 -21 -75 -21 -745 -1 -379 -5 -692 -9 -696 -4 -4 -38 -16 -77 -28 -165 -52
-356 -169 -494 -303 -206 -201 -351 -502 -376 -783 -6 -59 -6 -216 -1 -245 2
-14 7 -52 11 -85 7 -56 45 -206 64 -250 96 -218 162 -319 300 -455 252 -251
568 -380 916 -374 117 1 171 8 281 34 532 125 931 585 980 1130 53 588 -309
1143 -870 1331 l-81 27 -3 593 -2 594 939 940 c896 897 940 943 960 998 l21
58 0 1469 0 1470 -320 0 -320 0 0 -1372z"/>
<path d="M10398 6699 l-3 -3381 -105 -38 c-201 -72 -348 -167 -493 -317 -178
-185 -312 -454 -343 -688 -3 -27 -8 -61 -10 -75 -6 -45 -5 -204 1 -260 5 -46
23 -139 40 -210 11 -49 70 -193 106 -258 121 -226 317 -420 543 -536 126 -65
295 -117 426 -133 390 -45 764 80 1044 348 331 316 466 772 362 1220 -98 425
-423 781 -839 919 l-82 27 -3 3382 -2 3381 -320 0 -320 0 -2 -3381z"/>
<path d="M12962 8598 l3 -1483 28 -56 c24 -47 187 -214 958 -985 l929 -929 -2
-594 -3 -594 -85 -28 c-414 -138 -731 -486 -835 -917 -59 -244 -48 -467 36
-716 100 -301 334 -571 623 -720 123 -63 291 -116 421 -132 82 -10 249 -11
310 -2 141 21 144 22 260 59 179 57 335 152 480 291 329 315 465 772 361 1219
-99 428 -419 778 -841 919 l-80 27 -5 704 -5 704 -28 56 c-24 47 -187 214
-958 985 l-929 929 0 1373 0 1372 -320 0 -320 0 2 -1482z"/>
<path d="M15522 9238 l3 -843 27 -55 c23 -46 171 -199 886 -914 l859 -858 -43
-87 c-49 -98 -86 -206 -111 -324 -28 -127 -24 -391 6 -517 62 -255 176 -459
356 -635 34 -33 76 -71 94 -85 18 -14 38 -30 44 -35 7 -6 30 -22 52 -36 139
-90 292 -153 450 -185 11 -2 31 -7 45 -10 54 -13 345 -12 425 2 260 45 507
174 692 361 188 190 315 437 357 691 14 85 15 366 2 422 -3 14 -8 34 -10 45
-25 115 -54 203 -103 305 -27 55 -98 175 -118 197 -5 6 -21 26 -35 44 -14 18
-52 60 -85 94 -244 249 -558 382 -908 383 -209 0 -379 -39 -568 -132 l-87 -43
-796 796 -796 796 0 733 0 732 -320 0 -320 0 2 -842z"/>
</g>
</svg>
